<?xml version="1.0" encoding="utf-8"?>
<!-- Generator: Adobe Illustrator 24.0.1, SVG Export Plug-In . SVG Version: 6.00 Build 0)  -->
<svg version="1.1" id="Layer_1" xmlns="http://www.w3.org/2000/svg" xmlns:xlink="http://www.w3.org/1999/xlink" x="0px" y="0px"
	 viewBox="0 0 96 96" width="96px" height="96px"  style="enable-background:new 0 0 96 96;" xml:space="preserve">
<style type="text/css">
	.st0{fill:url(#SVGID_1_);stroke:#FFFFFF;stroke-miterlimit:10;stroke-opacity:0.5;}
	.st1{fill:#3D4543;}
	.st2{fill:#FFFFFF;}
</style>
<linearGradient id="SVGID_1_" gradientUnits="userSpaceOnUse" x1="61.6919" y1="72.3173" x2="33.6508" y2="23.7487" gradientTransform="matrix(0.8889 0.4581 -0.4581 0.8889 28.021 -22.0824)">
	<stop  offset="0" style="stop-color:#F0A054"/>
	<stop  offset="1" style="stop-color:#F0A054;stop-opacity:0"/>
</linearGradient>
<path class="st0" d="M47.9,70.5l42.6-36.4C80.3,22.1,65,14.5,48,14.5C31,14.4,15.7,22,5.4,34L47.9,70.5z"/>
<g>
	<g>
		<path class="st1" d="M48,81.2c-5.9,0-10.6-4.8-10.6-10.6S42.1,59.9,48,59.9s10.6,4.8,10.6,10.6S53.9,81.2,48,81.2z"/>
		<path class="st2" d="M48,60.5c5.5,0,10,4.5,10,10s-4.5,10-10,10s-10-4.5-10-10S42.5,60.5,48,60.5 M48,59.3
			c-6.2,0-11.3,5.1-11.3,11.3S41.8,81.8,48,81.8s11.3-5.1,11.3-11.3S54.2,59.3,48,59.3L48,59.3z"/>
	</g>
	<g>
		<path class="st2" d="M48.9,67.7h-1.9c-1,0-1.9,0.8-1.9,1.9v2.8c0,0.5,0.4,0.9,0.9,0.9l0,0v3.8c0,0.5,0.4,0.9,0.9,0.9h1.9
			c0.5,0,0.9-0.4,0.9-0.9v-3.8c0.5,0,0.9-0.4,0.9-0.9v-2.8C50.8,68.6,50,67.7,48.9,67.7z M48,66.8c1,0,1.9-0.8,1.9-1.9
			c0-1-0.8-1.9-1.9-1.9s-1.9,0.8-1.9,1.9C46.1,66,47,66.8,48,66.8z"/>
	</g>
</g>
</svg>
