<svg xmlns="http://www.w3.org/2000/svg" viewBox="0 0 22.56 22.56"><defs><style>.cls-1{fill:#3d4543;}.cls-2{fill:#fff;}</style></defs><title>view</title><g id="Layer_2" data-name="Layer 2"><g id="Layer_1-2" data-name="Layer 1"><circle class="cls-1" cx="11.28" cy="11.28" r="10.64"/><path class="cls-2" d="M11.28,1.28a10,10,0,1,1-10,10,10,10,0,0,1,10-10m0-1.28A11.28,11.28,0,1,0,22.56,11.28,11.29,11.29,0,0,0,11.28,0Z"/><path class="cls-2" d="M12.22,8.47H10.34a1.87,1.87,0,0,0-1.87,1.87v2.82a.94.94,0,0,0,.93.94h0v3.75a.94.94,0,0,0,.94.94h1.88a.94.94,0,0,0,.94-.94V14.1a.94.94,0,0,0,.94-.94V10.34A1.88,1.88,0,0,0,12.22,8.47Zm-.94-.94A1.88,1.88,0,1,0,9.4,5.65,1.88,1.88,0,0,0,11.28,7.53Z"/></g></g></svg>